<svg width="26" height="26" viewBox="0 0 26 26" fill="none" xmlns="http://www.w3.org/2000/svg">
<path d="M15.1931 6.32612C14.564 6.29921 13.9416 6.26207 13.3478 6.21259H10.5798C9.82069 6.21259 9.06579 6.27729 8.31 6.34207C7.55241 6.40699 6.79391 6.472 6.02939 6.472H3.19093C2.6453 6.472 1.86273 6.40726 1.46125 5.9724C1.00172 5.47466 1 4.54517 1 3.87791C1 2.73407 1.45493 2.35417 2.4414 2.014C3.27633 1.72609 4.26633 1.63276 5.17556 1.54703C5.34059 1.53147 5.50298 1.51616 5.66128 1.49999C6.11321 1.45381 6.57085 1.36668 7.02927 1.2794C7.66274 1.15879 8.29769 1.03791 8.92107 1.0244C10.6109 0.987795 12.3036 1 13.9956 1.01221C14.8413 1.0183 15.6868 1.0244 16.5317 1.0244C18.4195 1.0244 20.212 1.0244 22.0719 1.29009C22.1219 1.30362 22.1856 1.31705 22.2588 1.33247C22.6537 1.41568 23.324 1.55691 23.5925 2.08539C23.7479 2.29999 23.8693 2.57358 23.986 2.90924C24.2739 3.73711 24.3672 4.71876 24.453 5.62031C24.4685 5.78395 24.4838 5.94497 24.5 6.10194C24.5462 6.55006 24.6333 7.00384 24.7206 7.4584C24.8412 8.08652 24.9621 8.7161 24.9756 9.33422C25.0122 11.0098 25 12.6882 24.9878 14.3659C24.9817 15.2045 24.9756 16.0429 24.9756 16.8806C24.9756 18.7525 24.9756 20.5298 24.7099 22.3741C24.6964 22.4237 24.6829 22.4868 24.6675 22.5594C24.5596 23.0673 24.3541 24.0345 23.3327 23.996C22.7912 24.04 22.5256 24.04 22.2086 24.04C21.102 24.04 20.6006 22.9734 20.22 22.1639L20.2005 22.1226C19.6371 20.9252 19.6145 19.7525 19.6145 18.4638C19.6145 16.9419 19.6601 15.239 19.7874 13.7236V10.9789C19.7874 10.3166 19.7373 9.65746 19.6811 8.99812C19.1074 9.90527 18.3703 10.6599 17.5711 11.4591C16.2974 12.7329 14.8398 14.1259 13.4813 15.3042L11.1841 17.6014C10.5541 18.2314 9.97341 18.9037 9.39199 19.5767C8.8092 20.2514 8.22571 20.9269 7.59123 21.5614L5.23554 23.9171C4.78271 24.3699 4.08744 24.9736 3.44654 24.9991C2.71297 25.0282 2.05386 24.372 1.58171 23.8998C0.772346 23.0905 0.88109 22.4441 1.45909 21.3847C1.94828 20.4881 2.70385 19.6004 3.39778 18.7852C3.52374 18.6372 3.64767 18.4916 3.7676 18.3488C4.10999 17.941 4.42815 17.4996 4.74684 17.0574C5.18723 16.4463 5.62865 15.8338 6.13644 15.3069C7.513 13.8785 8.92645 12.4824 10.3393 11.0868C11.0454 10.3893 11.7515 9.69189 12.4526 8.99072C13.3716 8.07172 14.2634 7.17997 15.1931 6.32612Z" fill="currentColor" stroke="currentColor" stroke-width="0.896" stroke-linecap="round"/>
</svg>
