<svg width="62" height="60" viewBox="0 0 62 60" fill="none" xmlns="http://www.w3.org/2000/svg">
<path d="M60.3109 21.4967C59.101 15.544 56.0823 10.6379 51.2427 6.77831C46.4092 2.91875 41.0192 0.710699 35.0665 0.154149C29.1138 -0.402402 23.4636 0.547364 18.1159 3.01554C12.7682 5.47768 8.35206 9.1497 4.86757 14.0316C1.37703 18.9135 0.124789 24.2371 1.09875 30.0022C2.07272 35.7673 3.96015 41.0667 6.74895 45.9062C9.53775 50.7398 13.4699 54.5328 18.5333 57.2732C23.6028 60.0136 28.9263 60.6911 34.5039 59.2937C40.0815 57.8963 45.6893 55.8516 51.3153 53.1535C56.9413 50.4554 60.1476 45.9909 60.94 39.76C61.7325 33.529 61.5208 27.4372 60.3109 21.4846V21.4967Z" fill="white"/>
</svg>
