<svg width="150" height="150" viewBox="0 0 150 150" fill="none" xmlns="http://www.w3.org/2000/svg">
<circle cx="75" cy="75" r="75" fill="url(#paint0_linear_299_211)"/>
<path d="M123.65 74.825C123.65 47.855 101.795 26 74.825 26C47.855 26 26 47.855 26 74.825C26 101.795 47.855 123.805 74.825 123.805C88.155 123.805 100.245 118.38 109.08 109.7C110.475 113.575 111.25 117.605 111.25 121.945H122.72C122.72 113.885 120.55 106.135 116.985 99.47C121.17 92.185 123.65 83.815 123.65 74.825ZM109.39 89.085C100.71 79.94 88.465 74.205 74.825 74.205V85.675C86.295 85.675 96.525 90.79 103.19 99.16C96.37 107.065 86.14 112.335 74.825 112.335C54.21 112.335 37.47 95.44 37.47 74.825C37.47 54.21 54.21 37.47 74.825 37.47C95.44 37.47 112.18 54.21 112.18 74.825C112.18 79.785 111.25 84.745 109.39 89.085Z" fill="#171717"/>
<defs>
<linearGradient id="paint0_linear_299_211" x1="124.541" y1="32.8652" x2="76.6812" y2="135.617" gradientUnits="userSpaceOnUse">
<stop offset="0.0729167" stop-color="#F1B0A7"/>
<stop offset="0.818522" stop-color="#48A175"/>
</linearGradient>
</defs>
</svg>
