<svg width="57" height="60" viewBox="0 0 57 60" fill="none" xmlns="http://www.w3.org/2000/svg">
<path d="M55.5371 55.4725C54.5123 58.182 51.1624 59.644 48.4557 59.9447C45.2477 60.3012 42.0593 58.8559 39.0936 57.8451C38.9126 57.7838 38.7622 57.6975 38.6425 57.5972C37.4479 57.0292 36.3284 56.2857 35.312 55.3528C31.9008 56.2244 28.3699 56.4917 24.7164 56.1492C19.1331 55.6257 14.0734 53.5539 9.53436 49.9338C4.99813 46.3138 2.16334 41.7107 1.0272 36.1275C-0.106164 30.5414 -0.301091 24.8273 0.439631 18.9822C1.18035 13.1372 4.19058 8.94908 9.47031 6.41782C14.7473 3.88934 20.0047 1.9707 25.2399 0.661908C30.4723 -0.646886 35.468 -0.0147663 40.2242 2.55827C44.9804 5.1313 48.6645 8.68732 51.2821 13.2235C53.8997 17.7598 55.6652 22.7332 56.5813 28.1438C57.4975 33.5516 56.3196 38.5473 53.0476 43.1281C52.6188 43.7296 52.1704 44.3116 51.7109 44.8741C51.7973 44.9604 51.8864 45.0467 51.9699 45.1359C54.9412 47.8036 56.9545 51.716 55.5343 55.4725H55.5371ZM41.8922 24.2313C41.3353 21.4912 39.9457 19.2329 37.718 17.4562C35.493 15.6796 33.0091 14.6632 30.269 14.407C27.5289 14.1508 24.928 14.588 22.4664 15.7242C20.0047 16.8575 17.9719 18.5506 16.3652 20.7978C14.7612 23.0451 14.182 25.4956 14.6303 28.1494C15.0786 30.8032 15.9475 33.2425 17.2312 35.4703C18.5149 37.6952 20.325 39.4412 22.6557 40.7027C24.9893 41.9641 27.4398 42.276 30.0072 41.6327C32.5747 40.9895 35.1561 40.0483 37.7458 38.8063C40.3356 37.5643 41.8115 35.5093 42.1762 32.641C42.541 29.7728 42.4436 26.9687 41.8866 24.2286L41.8922 24.2313Z" fill="white"/>
</svg>
