<svg width="430" height="140" viewBox="0 0 430 140" fill="none" xmlns="http://www.w3.org/2000/svg">
<path d="M416.795 76.6C416.795 67.1067 416.581 59.6933 416.155 54.36C415.835 49.0267 415.301 45.24 414.555 43C413.808 40.76 412.795 39.64 411.515 39.64C410.341 39.64 409.328 40.76 408.475 43C407.728 45.24 407.141 49.0267 406.715 54.36C406.395 59.6933 406.235 67.1067 406.235 76.6C406.235 85.88 406.395 93.24 406.715 98.68C407.141 104.013 407.728 107.853 408.475 110.2C409.328 112.44 410.341 113.56 411.515 113.56C412.795 113.56 413.808 112.44 414.555 110.2C415.301 107.853 415.835 104.013 416.155 98.68C416.581 93.24 416.795 85.88 416.795 76.6ZM393.435 76.6C393.435 66.4667 393.861 58.3067 394.715 52.12C395.675 45.9333 396.955 41.1867 398.555 37.88C400.261 34.5733 402.181 32.3333 404.315 31.16C406.555 29.88 408.955 29.24 411.515 29.24C414.075 29.24 416.421 29.88 418.555 31.16C420.795 32.3333 422.715 34.5733 424.315 37.88C426.021 41.1867 427.301 45.9333 428.155 52.12C429.115 58.3067 429.595 66.4667 429.595 76.6C429.595 86.6267 429.115 94.7867 428.155 101.08C427.301 107.267 426.021 112.013 424.315 115.32C422.715 118.627 420.795 120.867 418.555 122.04C416.421 123.213 414.075 123.8 411.515 123.8C408.955 123.8 406.555 123.213 404.315 122.04C402.181 120.867 400.261 118.627 398.555 115.32C396.955 112.013 395.675 107.267 394.715 101.08C393.861 94.7867 393.435 86.6267 393.435 76.6Z" fill="black"/>
<path d="M374.094 123V30.04H386.734V123H374.094ZM373.934 21.56V6.83997H386.894V21.56H373.934Z" fill="black"/>
<path d="M369.679 29.24V43.8C368.825 43.5867 367.972 43.4267 367.119 43.32C366.265 43.2133 365.572 43.16 365.039 43.16C363.439 43.16 361.999 43.2667 360.719 43.48C359.545 43.6933 358.425 44.0133 357.359 44.44V37.72C358.852 34.7333 360.559 32.6 362.479 31.32C364.399 29.9333 366.799 29.24 369.679 29.24ZM344.719 123V30.04H355.439L357.359 37.72V123H344.719Z" fill="black"/>
<path d="M327.789 76.6C327.789 67.1067 327.575 59.6933 327.149 54.36C326.829 49.0267 326.295 45.24 325.549 43C324.802 40.76 323.789 39.64 322.509 39.64C321.335 39.64 320.322 40.76 319.469 43C318.722 45.24 318.135 49.0267 317.709 54.36C317.389 59.6933 317.229 67.1067 317.229 76.6C317.229 85.88 317.389 93.24 317.709 98.68C318.135 104.013 318.722 107.853 319.469 110.2C320.322 112.44 321.335 113.56 322.509 113.56C323.789 113.56 324.802 112.44 325.549 110.2C326.295 107.853 326.829 104.013 327.149 98.68C327.575 93.24 327.789 85.88 327.789 76.6ZM304.429 76.6C304.429 66.4667 304.855 58.3067 305.709 52.12C306.669 45.9333 307.949 41.1867 309.549 37.88C311.255 34.5733 313.175 32.3333 315.309 31.16C317.549 29.88 319.949 29.24 322.509 29.24C325.069 29.24 327.415 29.88 329.549 31.16C331.789 32.3333 333.709 34.5733 335.309 37.88C337.015 41.1867 338.295 45.9333 339.149 52.12C340.109 58.3067 340.589 66.4667 340.589 76.6C340.589 86.6267 340.109 94.7867 339.149 101.08C338.295 107.267 337.015 112.013 335.309 115.32C333.709 118.627 331.789 120.867 329.549 122.04C327.415 123.213 325.069 123.8 322.509 123.8C319.949 123.8 317.549 123.213 315.309 122.04C313.175 120.867 311.255 118.627 309.549 115.32C307.949 112.013 306.669 107.267 305.709 101.08C304.855 94.7867 304.429 86.6267 304.429 76.6Z" fill="black"/>
<path d="M264.519 123V30.04H275.559L277.159 35.8V123H264.519ZM300.199 123H287.559V49.56C287.559 45.4 287.132 42.6267 286.279 41.24C285.532 39.7466 284.252 39 282.439 39C281.692 39 280.839 39.16 279.879 39.48C279.025 39.6933 278.119 40.0667 277.159 40.6V35.8C278.439 33.7733 280.092 32.1733 282.119 31C284.145 29.8267 286.225 29.24 288.359 29.24C291.879 29.24 294.705 30.52 296.839 33.08C299.079 35.64 300.199 40.3333 300.199 47.16V123Z" fill="black"/>
<path d="M243.715 29.24C246.061 29.24 248.195 29.8267 250.115 31C252.141 32.0667 253.955 33.9867 255.555 36.76C257.155 39.5333 258.381 43.48 259.235 48.6C260.195 53.6133 260.675 60.0133 260.675 67.8V78.04H234.915V69.08H256.515L248.995 76.76V75.8C248.995 66.7333 248.781 59.5867 248.355 54.36C248.035 49.0267 247.501 45.24 246.755 43C246.008 40.76 244.995 39.64 243.715 39.64C242.541 39.64 241.528 40.76 240.675 43C239.928 45.24 239.341 49.0267 238.915 54.36C238.595 59.6933 238.435 67.1067 238.435 76.6C238.435 85.88 238.595 93.24 238.915 98.68C239.341 104.013 239.928 107.853 240.675 110.2C241.528 112.44 242.541 113.56 243.715 113.56C245.101 113.56 246.168 112.067 246.915 109.08C247.768 106.093 248.355 100.707 248.675 92.92L248.835 88.92H260.515L260.355 93.4C260.141 101.187 259.235 107.32 257.635 111.8C256.141 116.173 254.168 119.267 251.715 121.08C249.368 122.893 246.701 123.8 243.715 123.8C241.155 123.8 238.755 123.213 236.515 122.04C234.275 120.867 232.355 118.627 230.755 115.32C229.155 112.013 227.875 107.267 226.915 101.08C226.061 94.7867 225.635 86.6267 225.635 76.6C225.635 66.4667 226.061 58.3067 226.915 52.12C227.875 45.9333 229.155 41.1867 230.755 37.88C232.355 34.5733 234.275 32.3333 236.515 31.16C238.755 29.88 241.155 29.24 243.715 29.24Z" fill="black"/>
<path d="M230.225 12.76H218.705V123H206.225V12.76H194.545V1.40002H230.225V12.76Z" fill="black"/>
<path d="M142.713 123V30.04H153.753L155.353 35.8V123H142.713ZM178.393 123H165.753V49.56C165.753 45.4 165.326 42.6267 164.473 41.24C163.726 39.7466 162.446 39 160.633 39C159.886 39 159.033 39.16 158.073 39.48C157.22 39.6933 156.313 40.0667 155.353 40.6V35.8C156.633 33.7733 158.286 32.1733 160.313 31C162.34 29.8267 164.42 29.24 166.553 29.24C170.073 29.24 172.9 30.52 175.033 33.08C177.273 35.64 178.393 40.3333 178.393 47.16V123Z" fill="black"/>
<path d="M101.362 123V30.04H112.402L114.002 35.8V123H101.362ZM137.042 123H124.402V49.56C124.402 45.4 123.976 42.6267 123.122 41.24C122.376 39.7466 121.096 39 119.282 39C118.536 39 117.682 39.16 116.722 39.48C115.869 39.6933 114.962 40.0667 114.002 40.6V35.8C115.282 33.7733 116.936 32.1733 118.962 31C120.989 29.8267 123.069 29.24 125.202 29.24C128.722 29.24 131.549 30.52 133.682 33.08C135.922 35.64 137.042 40.3333 137.042 47.16V123Z" fill="black"/>
<path d="M82.9813 123V30.04H95.6213V123H82.9813ZM82.8213 21.56V6.83997H95.7813V21.56H82.8213Z" fill="black"/>
<path d="M77.2967 30.04V123H66.2567L64.8167 117.24V30.04H77.2967ZM42.0967 30.04H54.7367V103.8C54.7367 107.64 55.11 110.307 55.8567 111.8C56.71 113.293 57.99 114.04 59.6967 114.04C60.55 114.04 61.4033 113.933 62.2567 113.72C63.11 113.4 63.9634 113.027 64.8167 112.6V117.24C63.5367 119.267 61.8833 120.867 59.8567 122.04C57.83 123.213 55.8033 123.8 53.7767 123.8C50.2567 123.8 47.43 122.52 45.2967 119.96C43.1633 117.4 42.0967 112.76 42.0967 106.04V30.04Z" fill="black"/>
<path d="M25.0399 62.2C25.0399 51.4266 24.8799 42.68 24.5599 35.96C24.3465 29.24 24.0265 24.0666 23.5999 20.44C23.1732 16.8133 22.5865 14.36 21.8399 13.08C21.0932 11.6933 20.2399 11 19.2799 11C18.4266 11 17.6265 11.6933 16.8799 13.08C16.2399 14.36 15.6532 16.8133 15.1199 20.44C14.5865 24.0666 14.2132 29.24 13.9999 35.96C13.7865 42.68 13.6799 51.4266 13.6799 62.2C13.6799 72.9733 13.7865 81.7733 13.9999 88.6C14.2132 95.32 14.5865 100.493 15.1199 104.12C15.6532 107.64 16.2399 110.093 16.8799 111.48C17.6265 112.867 18.4266 113.56 19.2799 113.56C20.2399 113.56 21.0932 112.867 21.8399 111.48C22.5865 110.093 23.1732 107.64 23.5999 104.12C24.0265 100.493 24.3465 95.32 24.5599 88.6C24.8799 81.7733 25.0399 72.9733 25.0399 62.2ZM0.879883 62.2C0.879883 48.9733 1.25322 38.3067 1.99988 30.2C2.85322 21.9867 4.07988 15.7466 5.67988 11.48C7.27988 7.21331 9.19988 4.33331 11.4399 2.83998C13.7865 1.34664 16.3999 0.599976 19.2799 0.599976C22.2666 0.599976 24.8799 1.34664 27.1199 2.83998C29.4666 4.33331 31.4399 7.21331 33.0399 11.48C34.6399 15.7466 35.8132 21.9867 36.5599 30.2C37.4132 38.3067 37.8399 48.9733 37.8399 62.2C37.8399 75.5333 37.4132 86.2533 36.5599 94.36C35.8132 102.467 34.6399 108.653 33.0399 112.92C31.4399 117.187 29.4666 120.067 27.1199 121.56C24.8799 123.053 22.2666 123.8 19.2799 123.8C16.3999 123.8 13.7865 123.053 11.4399 121.56C9.19988 120.067 7.27988 117.187 5.67988 112.92C4.07988 108.653 2.85322 102.467 1.99988 94.36C1.25322 86.2533 0.879883 75.5333 0.879883 62.2ZM35.2799 138.84C33.9999 139.053 32.7199 139.16 31.4399 139.16C28.1332 139.16 25.1999 137.987 22.6399 135.64C20.1866 133.4 18.3199 129.453 17.0399 123.8L16.5599 121.24H22.6399V122.84C23.9199 124.76 25.1999 126.147 26.4799 127C27.8665 127.853 29.5199 128.28 31.4399 128.28C32.8266 128.28 34.1066 128.12 35.2799 127.8V138.84Z" fill="black"/>
</svg>
